<?xml version="1.0" encoding="UTF-8"?>
<svg id="Layer_1" data-name="Layer 1" xmlns="http://www.w3.org/2000/svg" viewBox="0 0 18.77 38.04">
  <defs>
    <style>
      .cls-1 {
        fill: #fee004;
      }
    </style>
  </defs>
  <path class="cls-1" d="m16.56,30.75h-.87c-.83,0-1.71-.62-1.71-1.99v-2.91c-.96.17-1.91.26-2.82.26-6.98,0-11.14-3.96-11.14-10.59v-4.97C0,3.84,4.06,0,11.14,0c1.91,0,4.05.28,6.02.8.63.17,1.07.74,1.07,1.39v1.4c0,.44-.21.86-.56,1.14-.26.2-.57.3-.88.3-.12,0-.24-.01-.36-.04-1.77-.46-3.77-.73-5.35-.73-4.61,0-6.75,2-6.75,6.29v4.97c0,4.32,2.17,6.34,6.84,6.34,1.25,0,2.53-.19,3.81-.56h0c.39-.11.77-.24,1.14-.39l.15-.05c.17-.07.35-.1.53-.1.28,0,.56.08.8.25.15.1.26.23.36.37.2.24.33.54.33.87v.07c0,.07.01.15.01.23v6.22c0,1.31-.89,1.99-1.76,1.99"/>
  <path class="cls-1" d="m16.14,38.04c-1.53,0-2.68-1.15-2.68-2.68s1.15-2.68,2.68-2.68,2.63,1.13,2.63,2.68-1.11,2.68-2.63,2.68"/>
</svg>