<?xml version="1.0" encoding="utf-8"?>
<!-- Generator: Adobe Illustrator 27.3.1, SVG Export Plug-In . SVG Version: 6.00 Build 0)  -->
<svg version="1.1" id="Layer_1" xmlns="http://www.w3.org/2000/svg" xmlns:xlink="http://www.w3.org/1999/xlink" x="0px" y="0px"
	 viewBox="0 0 64 64" style="enable-background:new 0 0 64 64;" xml:space="preserve">
<style type="text/css">
	.st0{fill:#FEE004;}
</style>
<g>
	<path class="st0" d="M44.26,51.35h-1.43c-1.35,0-2.81-1.02-2.81-3.27v-4.78c-1.58,0.27-3.14,0.43-4.64,0.43
		c-11.45,0-18.29-6.5-18.29-17.38v-8.15c0-11,6.67-17.31,18.29-17.31c3.13,0,6.64,0.47,9.88,1.31c1.04,0.27,1.76,1.21,1.76,2.28v2.3
		c0,0.73-0.34,1.42-0.91,1.86c-0.42,0.32-0.93,0.49-1.45,0.49c-0.2,0-0.39-0.02-0.59-0.07c-2.91-0.75-6.19-1.19-8.78-1.19
		c-7.56,0-11.08,3.28-11.08,10.32v8.15c0,7.1,3.57,10.4,11.23,10.4c2.05,0,4.15-0.31,6.25-0.92l0,0c0.64-0.19,1.27-0.4,1.87-0.63
		l0.24-0.08c0.28-0.11,0.58-0.17,0.87-0.17c0.46,0,0.92,0.14,1.32,0.41c0.24,0.16,0.42,0.37,0.58,0.6c0.33,0.4,0.54,0.89,0.55,1.43
		l0,0.11c0.01,0.12,0.01,0.24,0.01,0.37v10.22C47.15,50.22,45.69,51.35,44.26,51.35"/>
	<path class="st0" d="M43.58,63.31c-2.51,0-4.4-1.89-4.4-4.4c0-2.51,1.89-4.4,4.4-4.4c2.5,0,4.32,1.85,4.32,4.4
		C47.9,61.46,46.08,63.31,43.58,63.31"/>
</g>
</svg>
